<svg width="40" height="40" viewBox="0 0 40 40" fill="none" xmlns="http://www.w3.org/2000/svg">
<path d="M18.3333 33.3333C18.3333 33.7754 18.5089 34.1993 18.8215 34.5118C19.134 34.8244 19.558 35 20 35C20.442 35 20.8659 34.8244 21.1785 34.5118C21.4911 34.1993 21.6667 33.7754 21.6667 33.3333V21.6667H33.3333C33.7754 21.6667 34.1993 21.4911 34.5118 21.1785C34.8244 20.8659 35 20.442 35 20C35 19.558 34.8244 19.134 34.5118 18.8215C34.1993 18.5089 33.7754 18.3333 33.3333 18.3333H21.6667V6.66667C21.6667 6.22464 21.4911 5.80072 21.1785 5.48816C20.8659 5.17559 20.442 5 20 5C19.558 5 19.134 5.17559 18.8215 5.48816C18.5089 5.80072 18.3333 6.22464 18.3333 6.66667V18.3333H6.66667C6.22464 18.3333 5.80072 18.5089 5.48816 18.8215C5.17559 19.134 5 19.558 5 20C5 20.442 5.17559 20.8659 5.48816 21.1785C5.80072 21.4911 6.22464 21.6667 6.66667 21.6667H18.3333V33.3333Z" fill="black"/>
</svg>
