<svg width="40" height="40" viewBox="0 0 40 40" fill="none" xmlns="http://www.w3.org/2000/svg">
<path d="M20 23.59C19.6556 23.59 19.3556 23.4622 19.1 23.2067C18.8444 22.9511 18.7167 22.6511 18.7167 22.3067C18.7167 21.9622 18.8444 21.6628 19.1 21.4083C19.3556 21.1539 19.6556 21.0261 20 21.025C20.3444 21.0239 20.6444 21.1517 20.9 21.4083C21.1556 21.665 21.2833 21.965 21.2833 22.3083C21.2833 22.6517 21.1556 22.9511 20.9 23.2067C20.6444 23.4622 20.3444 23.59 20 23.59ZM13.3333 23.59C12.9889 23.59 12.6889 23.4622 12.4333 23.2067C12.1778 22.9511 12.05 22.6511 12.05 22.3067C12.05 21.9622 12.1778 21.6628 12.4333 21.4083C12.6889 21.1539 12.9889 21.0261 13.3333 21.025C13.6778 21.0239 13.9778 21.1517 14.2333 21.4083C14.4889 21.665 14.6167 21.965 14.6167 22.3083C14.6167 22.6517 14.4889 22.9511 14.2333 23.2067C13.9778 23.4622 13.6778 23.59 13.3333 23.59ZM26.6667 23.59C26.3222 23.59 26.0222 23.4622 25.7667 23.2067C25.5111 22.9511 25.3833 22.6511 25.3833 22.3067C25.3833 21.9622 25.5111 21.6628 25.7667 21.4083C26.0222 21.1539 26.3222 21.0261 26.6667 21.025C27.0111 21.0239 27.3111 21.1517 27.5667 21.4083C27.8222 21.665 27.95 21.965 27.95 22.3083C27.95 22.6517 27.8222 22.9511 27.5667 23.2067C27.3111 23.4622 27.0111 23.59 26.6667 23.59ZM20 30C19.6556 30 19.3556 29.8722 19.1 29.6167C18.8444 29.3611 18.7167 29.0611 18.7167 28.7167C18.7167 28.3722 18.8444 28.0728 19.1 27.8183C19.3556 27.5639 19.6556 27.4361 20 27.435C20.3444 27.4339 20.6444 27.5617 20.9 27.8183C21.1556 28.075 21.2833 28.375 21.2833 28.7183C21.2833 29.0617 21.1556 29.3617 20.9 29.6183C20.6444 29.875 20.3444 30.0022 20 30ZM13.3333 30C12.9889 30 12.6889 29.8722 12.4333 29.6167C12.1778 29.3611 12.05 29.0611 12.05 28.7167C12.05 28.3722 12.1778 28.0728 12.4333 27.8183C12.6889 27.5639 12.9889 27.4361 13.3333 27.435C13.6778 27.4339 13.9778 27.5617 14.2333 27.8183C14.4889 28.075 14.6167 28.375 14.6167 28.7183C14.6167 29.0617 14.4889 29.3617 14.2333 29.6183C13.9778 29.875 13.6778 30.0022 13.3333 30ZM26.6667 30C26.3222 30 26.0222 29.8722 25.7667 29.6167C25.5111 29.3611 25.3833 29.0611 25.3833 28.7167C25.3833 28.3722 25.5111 28.0728 25.7667 27.8183C26.0222 27.5639 26.3222 27.4361 26.6667 27.435C27.0111 27.4339 27.3111 27.5617 27.5667 27.8183C27.8222 28.075 27.95 28.375 27.95 28.7183C27.95 29.0617 27.8222 29.3617 27.5667 29.6183C27.3111 29.875 27.0111 30.0022 26.6667 30ZM9.36 35C8.59222 35 7.95166 34.7433 7.43833 34.23C6.925 33.7167 6.66778 33.0761 6.66666 32.3083V11.025C6.66666 10.2583 6.92389 9.61833 7.43833 9.105C7.95277 8.59167 8.59333 8.33445 9.36 8.33334H12.3083V4.61667H14.1033V8.33334H26.0267V4.61667H27.6933V8.33334H30.6417C31.4083 8.33334 32.0489 8.59056 32.5633 9.105C33.0778 9.61945 33.3344 10.26 33.3333 11.0267V32.3083C33.3333 33.075 33.0767 33.7156 32.5633 34.23C32.05 34.7444 31.4089 35.0011 30.64 35H9.36ZM9.36 33.3333H30.6417C30.8972 33.3333 31.1322 33.2267 31.3467 33.0133C31.5611 32.8 31.6678 32.5644 31.6667 32.3067V17.6933H8.33333V32.3083C8.33333 32.5639 8.44 32.7989 8.65333 33.0133C8.86666 33.2278 9.10166 33.3344 9.35833 33.3333" fill="black"/>
</svg>
