<svg width="40" height="40" viewBox="0 0 40 40" fill="none" xmlns="http://www.w3.org/2000/svg">
<path d="M36.6667 9.16669V31.6667C36.6667 34.4284 29.205 36.6667 20 36.6667C10.795 36.6667 3.33333 34.4284 3.33333 31.6667V9.16669" stroke="black" stroke-width="2" stroke-linecap="round" stroke-linejoin="round"/>
<path d="M36.6667 24.1667C36.6667 26.9284 29.205 29.1667 20 29.1667C10.795 29.1667 3.33333 26.9284 3.33333 24.1667M36.6667 16.6667C36.6667 19.4284 29.205 21.6667 20 21.6667C10.795 21.6667 3.33333 19.4284 3.33333 16.6667" stroke="black" stroke-width="2" stroke-linecap="round" stroke-linejoin="round"/>
<path d="M20 13.3333C29.2047 13.3333 36.6667 11.0948 36.6667 8.33334C36.6667 5.57192 29.2047 3.33334 20 3.33334C10.7953 3.33334 3.33333 5.57192 3.33333 8.33334C3.33333 11.0948 10.7953 13.3333 20 13.3333Z" stroke="black" stroke-width="2" stroke-linecap="round" stroke-linejoin="round"/>
</svg>
