<svg width="40" height="40" viewBox="0 0 40 40" fill="none" xmlns="http://www.w3.org/2000/svg">
<path d="M11.6664 26.6664H25V16.6664H11.6664V26.6664Z" stroke="black" stroke-width="2" stroke-linecap="round" stroke-linejoin="round"/>
<path d="M8.33362 33.3336H30C30.2189 33.3336 30.4357 33.2905 30.6379 33.2067C30.8401 33.1229 31.0239 33.0001 31.1786 32.8452C31.3334 32.6904 31.4561 32.5066 31.5398 32.3043C31.6235 32.1021 31.6665 31.8853 31.6664 31.6664V11.6664C31.6664 11.2244 31.4909 10.8006 31.1783 10.4881C30.8658 10.1756 30.442 10 30 10H11.6664" stroke="black" stroke-width="2" stroke-linecap="round" stroke-linejoin="round"/>
<path d="M35 28.3336H31.6664M11.6664 30V9.99999C11.6733 9.55792 11.5921 9.11891 11.4277 8.7085C11.2632 8.2981 11.0188 7.9245 10.7086 7.60946C10.3984 7.29443 10.0286 7.04424 9.62084 6.87346C9.21303 6.70269 8.77532 6.61475 8.3332 6.61475C7.89108 6.61475 7.45338 6.70269 7.04557 6.87346C6.63776 7.04424 6.268 7.29443 5.9578 7.60946C5.64761 7.9245 5.40318 8.2981 5.23874 8.7085C5.07431 9.11891 4.99315 9.55792 5 9.99999V30M11.6664 30C11.6733 30.4421 11.5921 30.8811 11.4277 31.2915C11.2632 31.7019 11.0188 32.0755 10.7086 32.3905C10.3984 32.7055 10.0286 32.9557 9.62084 33.1265C9.21303 33.2973 8.77532 33.3852 8.3332 33.3852C7.89108 33.3852 7.45338 33.2973 7.04557 33.1265C6.63776 32.9557 6.268 32.7055 5.9578 32.3905C5.64761 32.0755 5.40318 31.7019 5.23874 31.2915C5.07431 30.8811 4.99315 30.4421 5 30M11.6664 30C11.6664 30.884 11.3156 31.7314 10.6905 32.3565C10.0654 32.9816 9.21762 33.3328 8.3336 33.3328C7.44958 33.3328 6.60177 32.9816 5.97667 32.3565C5.35158 31.7314 5 30.884 5 30M11.6664 30C11.6664 29.116 11.3156 28.2678 10.6905 27.6427C10.0654 27.0176 9.21762 26.6664 8.3336 26.6664C7.44958 26.6664 6.60177 27.0176 5.97667 27.6427C5.35158 28.2678 5 29.116 5 30M35 15H31.6664M35 21.6664H31.6664" stroke="black" stroke-width="2" stroke-linecap="round" stroke-linejoin="round"/>
</svg>
