<svg width="40" height="40" viewBox="0 0 40 40" fill="none" xmlns="http://www.w3.org/2000/svg">
<path d="M6.65834 28.6783V32.5C6.65834 32.721 6.74614 32.933 6.90242 33.0893C7.0587 33.2455 7.27066 33.3333 7.49167 33.3333H11.3217C11.5423 33.3333 11.7538 33.2458 11.91 33.09L27.6567 17.3433L22.6567 12.3433L6.90334 28.09C6.74695 28.2459 6.65883 28.4575 6.65834 28.6783ZM24.72 10.2783L29.72 15.2783L32.1533 12.845C32.4658 12.5325 32.6413 12.1086 32.6413 11.6667C32.6413 11.2247 32.4658 10.8009 32.1533 10.4883L29.5117 7.845C29.1991 7.53255 28.7753 7.35703 28.3333 7.35703C27.8914 7.35703 27.4676 7.53255 27.155 7.845L24.72 10.2783Z" fill="black"/>
</svg>
