<svg width="40" height="40" viewBox="0 0 40 40" fill="none" xmlns="http://www.w3.org/2000/svg">
<path fill-rule="evenodd" clip-rule="evenodd" d="M3.99999 8C3.64637 8 3.30723 8.14048 3.05718 8.39052C2.80713 8.64057 2.66666 8.97971 2.66666 9.33333C2.66666 9.68696 2.80713 10.0261 3.05718 10.2761C3.30723 10.5262 3.64637 10.6667 3.99999 10.6667H36C36.3536 10.6667 36.6928 10.5262 36.9428 10.2761C37.1928 10.0261 37.3333 9.68696 37.3333 9.33333C37.3333 8.97971 37.1928 8.64057 36.9428 8.39052C36.6928 8.14048 36.3536 8 36 8H3.99999ZM2.66666 20C2.66666 19.6464 2.80713 19.3072 3.05718 19.0572C3.30723 18.8071 3.64637 18.6667 3.99999 18.6667H36C36.3536 18.6667 36.6928 18.8071 36.9428 19.0572C37.1928 19.3072 37.3333 19.6464 37.3333 20C37.3333 20.3536 37.1928 20.6928 36.9428 20.9428C36.6928 21.1929 36.3536 21.3333 36 21.3333H3.99999C3.64637 21.3333 3.30723 21.1929 3.05718 20.9428C2.80713 20.6928 2.66666 20.3536 2.66666 20ZM2.66666 30.6667C2.66666 30.313 2.80713 29.9739 3.05718 29.7239C3.30723 29.4738 3.64637 29.3333 3.99999 29.3333H36C36.3536 29.3333 36.6928 29.4738 36.9428 29.7239C37.1928 29.9739 37.3333 30.313 37.3333 30.6667C37.3333 31.0203 37.1928 31.3594 36.9428 31.6095C36.6928 31.8595 36.3536 32 36 32H3.99999C3.64637 32 3.30723 31.8595 3.05718 31.6095C2.80713 31.3594 2.66666 31.0203 2.66666 30.6667Z" fill="#050A30"/>
</svg>
