<svg width="40" height="40" viewBox="0 0 40 40" fill="none" xmlns="http://www.w3.org/2000/svg">
<path d="M31.3399 6.94286L33.1903 4.75429C31.4024 3.25372 29.3645 2.07369 27.1683 1.26714L26.1848 3.95C28.0651 4.64275 29.8096 5.65644 31.3399 6.94286ZM37.1661 17.1429L40 16.5529C39.6012 14.2705 38.8029 12.0751 37.6413 10.0657L35.1487 11.4286C36.1441 13.2055 36.8264 15.1381 37.1661 17.1429ZM26.1848 36.05L27.1683 38.7329C29.3644 37.9267 31.4022 36.7472 33.1903 35.2471L31.3399 33.0586C29.8096 34.345 28.0651 35.3573 26.1848 36.05ZM35.1487 28.5714L37.6413 30C38.8047 27.968 39.6029 25.7506 40 23.4471L37.1661 22.9514C36.8242 24.9259 36.1417 26.827 35.1487 28.5714ZM20.1598 40V0C14.8131 0 9.68538 2.10714 5.90468 5.85786C2.12398 9.60859 0 14.6957 0 20C0 25.3043 2.12398 30.3914 5.90468 34.1421C9.68538 37.8929 14.8131 40 20.1598 40Z" fill="black"/>
</svg>
