<svg width="40" height="40" viewBox="0 0 40 40" fill="none" xmlns="http://www.w3.org/2000/svg">
<path d="M11.235 18.725C10.9035 18.725 10.5855 18.8567 10.3511 19.0911C10.1167 19.3255 9.985 19.6435 9.985 19.975C9.985 20.3065 10.1167 20.6245 10.3511 20.8589C10.5855 21.0933 10.9035 21.225 11.235 21.225H16.21C16.5415 21.225 16.8595 21.0933 17.0939 20.8589C17.3283 20.6245 17.46 20.3065 17.46 19.975C17.46 19.6435 17.3283 19.3255 17.0939 19.0911C16.8595 18.8567 16.5415 18.725 16.21 18.725H11.235ZM11.235 25C10.9035 25 10.5855 25.1317 10.3511 25.3661C10.1167 25.6005 9.985 25.9185 9.985 26.25C9.985 26.5815 10.1167 26.8995 10.3511 27.1339C10.5855 27.3683 10.9035 27.5 11.235 27.5H16.21C16.5415 27.5 16.8595 27.3683 17.0939 27.1339C17.3283 26.8995 17.46 26.5815 17.46 26.25C17.46 25.9185 17.3283 25.6005 17.0939 25.3661C16.8595 25.1317 16.5415 25 16.21 25H11.235ZM12.46 13.725C12.46 14.0565 12.3283 14.3745 12.0939 14.6089C11.8595 14.8433 11.5415 14.975 11.21 14.975C10.8785 14.975 10.5605 14.8433 10.3261 14.6089C10.0917 14.3745 9.96 14.0565 9.96 13.725C9.96 13.3935 10.0917 13.0755 10.3261 12.8411C10.5605 12.6067 10.8785 12.475 11.21 12.475C11.5415 12.475 11.8595 12.6067 12.0939 12.8411C12.3283 13.0755 12.46 13.3935 12.46 13.725ZM8.75 7.5C7.75544 7.5 6.80161 7.89509 6.09835 8.59835C5.39509 9.30161 5 10.2554 5 11.25V28.75C5 29.7446 5.39509 30.6984 6.09835 31.4017C6.80161 32.1049 7.75544 32.5 8.75 32.5H23.75C25.3825 32.505 27.0125 31.535 27.4175 29.465L27.7825 27.6H31.25C32.2446 27.6 33.1984 27.2049 33.9017 26.5017C34.6049 25.7984 35 24.8446 35 23.85V16.275C35 13.8675 33.21 12.565 31.375 12.5H22.4875V11.25C22.4875 10.2554 22.0924 9.30161 21.3892 8.59835C20.6859 7.89509 19.7321 7.5 18.7375 7.5H8.75ZM22.4875 15H27.7125C27.652 15.1886 27.6027 15.3806 27.565 15.575L27.195 17.53V17.535L24.9625 28.985C24.6725 30.4725 22.4875 30.26 22.4875 28.7475V15ZM19.9875 28.7475C19.9875 29.2042 20.05 29.6217 20.175 30H8.75C8.41848 30 8.10054 29.8683 7.86612 29.6339C7.6317 29.3995 7.5 29.0815 7.5 28.75V11.25C7.5 10.9185 7.6317 10.6005 7.86612 10.3661C8.10054 10.1317 8.41848 10 8.75 10H18.7375C19.069 10 19.387 10.1317 19.6214 10.3661C19.8558 10.6005 19.9875 10.9185 19.9875 11.25V28.7475ZM31.25 25.1H28.27L29.65 18.0075V18L30.0225 16.0375C30.305 14.5475 32.5 14.7525 32.5 16.27V23.85C32.5 24.1815 32.3683 24.4995 32.1339 24.7339C31.8995 24.9683 31.5815 25.1 31.25 25.1Z" fill="black"/>
</svg>
