<svg width="40" height="40" viewBox="0 0 40 40" fill="none" xmlns="http://www.w3.org/2000/svg">
<path fill-rule="evenodd" clip-rule="evenodd" d="M11.3725 18.1362L5.7475 27.8787L12.2425 31.6287L17.8675 21.8862L11.3725 18.1362ZM12.6225 15.9712L19.1175 19.7212L19.7425 18.6387C20.24 17.7775 20.375 16.7537 20.1175 15.7937C19.86 14.8325 19.2312 14.0137 18.37 13.5162C17.5087 13.0187 16.485 12.8837 15.525 13.1412C14.5637 13.3987 13.745 14.0275 13.2475 14.8887L12.6225 15.9712ZM4.84749 30.2462L4.0075 36.0712C3.935 36.5775 4.1775 37.0762 4.62 37.3312C5.0625 37.5875 5.61624 37.5475 6.01874 37.2312L10.6437 33.5925L4.84749 30.2462ZM4.8325 24.4637L10.3512 14.9062C8.83249 14.6237 7.23375 15.305 6.4175 16.7187L2.6675 23.2137C2.3225 23.8112 2.5275 24.5762 3.125 24.9212C3.7225 25.2662 4.4875 25.0612 4.8325 24.4637Z" fill="black"/>
<path fill-rule="evenodd" clip-rule="evenodd" d="M32.03 37.2263C32.03 37.2263 34.6425 35.1388 36.0912 33.9825C36.9812 33.27 37.5 32.1925 37.5 31.0525C37.5 27.6337 37.5 17.755 37.5 12.2763C37.5 9.48625 35.65 7.03376 32.9675 6.26751C28.9975 5.13251 22.8562 3.37876 20.2875 2.64376C19.1587 2.32126 17.945 2.54626 17.0062 3.25001C15.5487 4.34376 13 6.255 13 6.255C12.4475 6.66875 12.3362 7.45251 12.75 8.00501C13.1637 8.55751 13.9475 8.66876 14.5 8.25501L18.5062 5.25C18.82 5.015 19.2237 4.94 19.6 5.0475L32.28 8.67125C33.89 9.13125 35 10.6025 35 12.2763C35 17.755 35 27.6337 35 31.0525C35 31.4325 34.8275 31.7913 34.53 32.0288C33.0825 33.1863 30.47 35.2738 30.47 35.2738C29.9312 35.7037 29.8425 36.4913 30.2737 37.03C30.7037 37.5688 31.4912 37.6575 32.03 37.2263Z" fill="black"/>
<path fill-rule="evenodd" clip-rule="evenodd" d="M12.5 11.9587C13.1875 11.3862 13.9975 10.9637 14.8775 10.7275C16.4788 10.2987 18.185 10.5225 19.62 11.3512C21.0562 12.18 22.1038 13.5462 22.5325 15.1462C22.9613 16.7475 22.7363 18.4537 21.9075 19.89L14.5175 32.69C14.7387 32.805 14.9738 32.9 15.22 32.97C19.695 34.2487 30.9063 37.4525 30.9063 37.4525C31.2838 37.56 31.69 37.4837 32.0025 37.2475C32.3163 37.0112 32.5 36.6425 32.5 36.25V14.3862C32.5 12.7112 31.39 11.24 29.78 10.78C25.305 9.50122 14.0938 6.29747 14.0938 6.29747C13.7163 6.18997 13.31 6.26623 12.9975 6.50248C12.6838 6.73873 12.5 7.10748 12.5 7.49998V11.9587Z" fill="black"/>
</svg>
