<svg width="40" height="40" viewBox="0 0 40 40" fill="none" xmlns="http://www.w3.org/2000/svg">
<path d="M35.6538 29.7663C35.0063 29.1288 27.16 26.0938 25.7363 25.5213C24.32 24.9588 23.755 23.4 23.755 23.4C23.755 23.4 23.1175 23.7525 23.1175 22.7625C23.1175 21.7713 23.755 23.4 24.3925 19.5775C24.3925 19.5775 26.1613 19.0813 25.81 14.9775H25.385C25.385 14.9775 26.4475 10.59 25.385 9.10501C24.3188 7.62001 23.9012 6.63001 21.56 5.92001C19.2225 5.21126 20.0725 5.35251 18.375 5.42501C16.675 5.49626 15.26 6.41626 15.26 6.91001C15.26 6.91001 14.1975 6.98126 13.775 7.40626C13.35 7.83126 12.6425 9.81126 12.6425 10.3063C12.6425 10.8013 12.9962 14.1313 13.35 14.8363L12.9287 14.9738C12.575 19.0788 14.3437 19.5763 14.3437 19.5763C14.9812 23.3988 15.6187 21.77 15.6187 22.7613C15.6187 23.7513 14.9812 23.3988 14.9812 23.3988C14.9812 23.3988 14.415 24.9563 13 25.52C11.585 26.0863 3.73 29.1288 3.09125 29.765C2.45375 30.415 2.525 33.385 2.525 33.385H36.2175C36.2175 33.385 36.2962 30.4125 35.6512 29.7638L35.6538 29.7663ZM27.735 32.5788H22.0325V31.0163H27.735V32.5788Z" fill="black"/>
</svg>
