<svg width="22" height="28" viewBox="0 0 22 28" fill="none" xmlns="http://www.w3.org/2000/svg">
<path fill-rule="evenodd" clip-rule="evenodd" d="M1.66671 24.6665H20.3334C20.687 24.6665 21.0261 24.807 21.2762 25.057C21.5262 25.3071 21.6667 25.6462 21.6667 25.9998C21.6667 26.3535 21.5262 26.6926 21.2762 26.9426C21.0261 27.1927 20.687 27.3332 20.3334 27.3332H1.66671C1.31309 27.3332 0.973947 27.1927 0.723899 26.9426C0.47385 26.6926 0.333374 26.3535 0.333374 25.9998C0.333374 25.6462 0.47385 25.3071 0.723899 25.057C0.973947 24.807 1.31309 24.6665 1.66671 24.6665ZM0.333374 17.9998L13.6667 4.6665L17.6667 8.6665L4.33337 21.9998H0.333374V17.9998ZM15 3.33317L17.6667 0.666504L21.6667 4.6665L18.9987 7.3345L15 3.33317Z" fill="white"/>
</svg>
