<svg width="30" height="22" viewBox="0 0 30 22" fill="none" xmlns="http://www.w3.org/2000/svg">
<path d="M15 1.6665C6.59071 1.6665 2.51071 9.24384 1.78671 10.7438C1.74801 10.8236 1.72791 10.9112 1.72791 10.9998C1.72791 11.0885 1.74801 11.176 1.78671 11.2558C2.50937 12.7558 6.58937 20.3332 15 20.3332C23.4107 20.3332 27.4894 12.7558 28.2134 11.2558C28.2521 11.176 28.2722 11.0885 28.2722 10.9998C28.2722 10.9112 28.2521 10.8236 28.2134 10.7438C27.4907 9.24384 23.4107 1.6665 15 1.6665Z" stroke="white" stroke-width="2" stroke-linecap="round" stroke-linejoin="round"/>
<path d="M15 15C17.2091 15 19 13.2091 19 11C19 8.79086 17.2091 7 15 7C12.7909 7 11 8.79086 11 11C11 13.2091 12.7909 15 15 15Z" stroke="white" stroke-width="2" stroke-linecap="round" stroke-linejoin="round"/>
</svg>
